<svg xmlns="http://www.w3.org/2000/svg" xmlns:xlink="http://www.w3.org/1999/xlink" viewBox="0 0 24 24"><defs><style>.cls-1{fill:url(#Gradiente_sem_nome);}</style><linearGradient id="Gradiente_sem_nome" y1="26" x2="24" y2="2" gradientTransform="matrix(1, 0, 0, -1, 0, 26)" gradientUnits="userSpaceOnUse"><stop offset="0" stop-color="#5b6abd"/><stop offset="1" stop-color="#d943b8"/></linearGradient></defs><g id="Camada_2" data-name="Camada 2"><g id="Camada_1-2" data-name="Camada 1"><path class="cls-1" d="M12,0C8.74,0,8.33,0,7.05.07A8.76,8.76,0,0,0,4.14.63,6.07,6.07,0,0,0,.63,4.14,8.76,8.76,0,0,0,.07,7.05C0,8.33,0,8.74,0,12S0,15.67.07,17a8.71,8.71,0,0,0,.56,2.91,6.07,6.07,0,0,0,3.51,3.51,8.71,8.71,0,0,0,2.91.56C8.33,24,8.74,24,12,24s3.67,0,4.95-.07a8.76,8.76,0,0,0,2.91-.56A5.89,5.89,0,0,0,22,22a6,6,0,0,0,1.38-2.13A8.71,8.71,0,0,0,23.93,17C24,15.67,24,15.26,24,12s0-3.67-.07-4.95a8.76,8.76,0,0,0-.56-2.91A6.07,6.07,0,0,0,19.86.63,8.82,8.82,0,0,0,17,.07C15.66,0,15.26,0,12,0ZM10.92,2.16H12c3.21,0,3.59,0,4.85.07a6.68,6.68,0,0,1,2.23.41,3.75,3.75,0,0,1,1.38.9,3.75,3.75,0,0,1,.9,1.38,6.68,6.68,0,0,1,.41,2.23c.06,1.26.07,1.64.07,4.85s0,3.58-.07,4.84a6.68,6.68,0,0,1-.41,2.23,3.84,3.84,0,0,1-.9,1.38,3.75,3.75,0,0,1-1.38.9,6.68,6.68,0,0,1-2.23.41c-1.26.06-1.64.07-4.85.07s-3.58,0-4.85-.07a6.74,6.74,0,0,1-2.23-.41,3.71,3.71,0,0,1-1.38-.9,4,4,0,0,1-.9-1.38,6.68,6.68,0,0,1-.41-2.23c-.06-1.26-.07-1.64-.07-4.85s0-3.58.07-4.84a6.61,6.61,0,0,1,.42-2.23,3.61,3.61,0,0,1,.89-1.38,3.75,3.75,0,0,1,1.38-.9,6.74,6.74,0,0,1,2.23-.41c1.11,0,1.54-.07,3.77-.07Zm7.49,2a1.45,1.45,0,0,0-.55.1,1.4,1.4,0,0,0-.47.32,1.29,1.29,0,0,0-.31.46,1.35,1.35,0,0,0-.11.55,1.36,1.36,0,0,0,.11.56,1.29,1.29,0,0,0,.31.46,1.4,1.4,0,0,0,.47.32,1.45,1.45,0,0,0,.55.1,1.42,1.42,0,0,0,1-.42,1.41,1.41,0,0,0,0-2A1.42,1.42,0,0,0,18.41,4.16ZM12,5.84a6.29,6.29,0,0,0-2.39.44,6.11,6.11,0,0,0-2,1.33,6.27,6.27,0,0,0-1.36,2,6.14,6.14,0,0,0,0,4.76,6.16,6.16,0,0,0,1.36,2A6.14,6.14,0,0,0,12,18.16,6.16,6.16,0,0,0,12,5.84ZM12,8A4,4,0,1,1,9.17,9.17,4,4,0,0,1,12,8Z"/></g></g></svg>