<svg xmlns="http://www.w3.org/2000/svg" xmlns:xlink="http://www.w3.org/1999/xlink" viewBox="0 0 23.97 19.94"><defs><style>.cls-1{fill-rule:evenodd;fill:url(#Gradiente_sem_nome);}</style><linearGradient id="Gradiente_sem_nome" x1="2.51" y1="24.11" x2="22.12" y2="0.53" gradientTransform="matrix(1, 0, 0, -1, 0, 22.02)" gradientUnits="userSpaceOnUse"><stop offset="0" stop-color="#5b6abd"/><stop offset="1" stop-color="#d943b8"/></linearGradient></defs><g id="Camada_2" data-name="Camada 2"><g id="Camada_1-2" data-name="Camada 1"><path class="cls-1" d="M14.53.36a5.48,5.48,0,0,1,3.28-.2A5.39,5.39,0,0,1,20.13,1.4,9.84,9.84,0,0,0,22.42.19L23,1l1,.24A8.76,8.76,0,0,1,22,5c0,.16,0,.32,0,.49h0c0,6.1-2.94,10.58-7.15,12.82A15,15,0,0,1,.51,17.88,1,1,0,0,1,1,16a10.55,10.55,0,0,0,4.87-1,10.18,10.18,0,0,1-3.33-3.21A9.52,9.52,0,0,1,1.13,7.06a13.07,13.07,0,0,1,.42-3.83,9.43,9.43,0,0,1,.36-1.17L2,1.74a.69.69,0,0,0,0-.1v0h0l0-.05L3,2l.82-.57A9.59,9.59,0,0,0,7.38,4.51a9.75,9.75,0,0,0,3.62,1A5.49,5.49,0,0,1,14.53.36ZM3.4,4.05A11.14,11.14,0,0,0,3.12,7a7.68,7.68,0,0,0,1.15,3.8A9,9,0,0,0,8.41,14.1a1,1,0,0,1,.59.82,1,1,0,0,1-.44.92A12.87,12.87,0,0,1,5,17.53a12.48,12.48,0,0,0,9-1c3.53-1.87,6.09-5.65,6.09-11a3.47,3.47,0,0,0-.06-.64,1,1,0,0,1,.28-.9,8.17,8.17,0,0,0,.62-.7l-.69.23a1,1,0,0,1-1-.3,3.52,3.52,0,0,0-1.79-1.1A3.49,3.49,0,0,0,13,5.53h0v1a1,1,0,0,1-1,1A11.72,11.72,0,0,1,6.48,6.3,12,12,0,0,1,3.4,4.05Z"/></g></g></svg>